<?xml version="1.0" encoding="UTF-8" ?>
<!DOCTYPE svg PUBLIC "-//W3C//DTD SVG 1.1//EN" "http://www.w3.org/Graphics/SVG/1.1/DTD/svg11.dtd">
<svg width="1000pt" height="1000pt" viewBox="0 0 1000 1000" version="1.1" xmlns="http://www.w3.org/2000/svg">
<g id="#00a0e9ff">
<path fill="#00a0e9" opacity="1.00" d=" M 469.39 42.91 C 470.68 41.76 472.41 42.02 474.00 41.97 C 492.66 42.09 511.32 41.88 529.98 42.07 C 530.39 42.28 531.21 42.69 531.62 42.90 C 535.20 43.09 538.79 42.91 542.38 43.10 C 545.36 44.91 549.07 43.60 552.38 44.09 C 555.40 46.30 559.58 43.71 562.62 45.88 C 564.94 46.17 567.55 45.44 569.62 46.87 C 571.20 46.97 572.79 47.03 574.39 47.13 C 576.51 48.72 579.42 47.32 581.60 48.80 C 583.28 49.03 585.13 48.81 586.61 49.85 C 588.60 50.05 590.74 49.73 592.58 50.71 C 593.93 50.98 595.35 51.12 596.60 51.79 C 598.28 52.01 600.10 51.86 601.61 52.81 C 602.53 52.94 603.46 53.06 604.40 53.19 C 606.30 54.34 608.69 53.66 610.60 54.81 C 611.53 54.94 612.46 55.07 613.40 55.20 C 615.08 55.85 616.87 56.17 618.58 56.75 C 619.04 56.88 619.96 57.12 620.42 57.25 C 622.11 57.82 623.88 58.18 625.58 58.75 C 626.04 58.88 626.96 59.12 627.42 59.24 C 629.08 59.86 630.83 60.16 632.54 60.64 C 633.55 61.00 634.56 61.38 635.57 61.79 C 636.03 61.90 636.96 62.12 637.42 62.24 C 639.08 62.86 640.83 63.17 642.54 63.66 C 643.53 63.98 644.53 64.33 645.53 64.70 C 646.52 65.00 647.53 65.32 648.53 65.65 C 649.90 66.11 651.24 66.67 652.58 67.27 C 653.52 67.64 654.49 67.99 655.47 68.31 C 656.81 68.79 658.18 69.21 659.53 69.69 C 660.50 70.01 661.47 70.35 662.43 70.72 C 664.07 71.50 665.78 72.11 667.51 72.69 C 669.22 73.14 670.84 73.89 672.40 74.73 C 674.04 75.47 675.73 76.09 677.41 76.75 C 680.17 77.89 683.01 78.84 685.62 80.33 C 687.86 81.49 690.28 82.27 692.62 83.23 C 695.24 84.67 697.92 85.99 700.62 87.28 C 701.54 87.76 702.46 88.25 703.39 88.74 C 704.44 89.23 705.49 89.75 706.56 90.26 C 707.07 90.52 708.10 91.04 708.61 91.30 C 710.60 92.31 712.59 93.32 714.60 94.29 C 717.71 95.78 720.77 97.36 723.59 99.34 C 724.52 99.79 725.46 100.23 726.41 100.68 C 728.85 101.81 731.03 103.40 733.37 104.71 C 734.81 105.53 736.18 106.48 737.63 107.29 C 740.68 108.87 743.32 111.13 746.38 112.70 C 763.91 123.82 780.77 136.08 796.46 149.62 C 799.51 151.46 801.50 154.56 804.56 156.39 C 808.88 159.71 812.01 164.38 816.70 167.27 C 822.56 173.08 828.52 178.82 834.16 184.84 C 837.14 189.73 842.29 192.76 845.39 197.56 C 862.03 216.20 876.91 236.47 890.30 257.61 C 891.20 259.33 892.31 260.94 893.29 262.62 C 894.35 264.58 895.64 266.40 896.70 268.37 C 897.49 269.81 898.45 271.15 899.33 272.54 C 899.57 273.07 900.06 274.11 900.30 274.64 C 900.75 275.55 901.20 276.48 901.66 277.40 C 903.63 280.23 905.22 283.28 906.70 286.39 C 906.96 286.90 907.47 287.94 907.73 288.45 C 908.37 289.76 909.03 291.07 909.70 292.38 C 910.55 294.13 911.43 295.86 912.29 297.61 C 913.31 299.60 914.31 301.59 915.28 303.62 C 916.09 305.21 916.89 306.81 917.77 308.38 C 918.72 310.71 919.50 313.13 920.67 315.38 C 922.16 317.98 923.09 320.83 924.26 323.59 C 925.47 325.82 926.24 328.24 927.28 330.56 C 927.64 331.52 927.98 332.49 928.30 333.48 C 928.88 335.20 929.49 336.92 930.27 338.57 C 930.64 339.52 931.00 340.48 931.34 341.46 C 931.66 342.46 931.97 343.47 932.28 344.49 C 932.88 346.20 933.50 347.91 934.27 349.56 C 934.64 350.52 934.99 351.49 935.33 352.47 C 935.66 353.46 935.99 354.46 936.31 355.47 C 936.66 356.46 937.00 357.46 937.34 358.47 C 937.83 360.14 938.15 361.86 938.64 363.54 C 938.98 364.56 939.37 365.56 939.79 366.56 C 939.90 367.03 940.13 367.96 940.24 368.42 C 940.83 370.11 941.17 371.88 941.75 373.58 C 941.87 374.04 942.12 374.96 942.24 375.42 C 942.81 377.12 943.17 378.88 943.75 380.58 C 943.87 381.04 944.12 381.95 944.24 382.41 C 944.83 383.67 945.01 385.06 945.29 386.43 C 945.81 388.14 946.14 389.91 946.80 391.60 C 946.92 392.52 947.05 393.46 947.19 394.39 C 948.31 396.30 947.66 398.69 948.81 400.60 C 948.92 401.53 949.05 402.46 949.19 403.39 C 950.35 405.30 949.60 407.74 950.86 409.62 C 950.96 411.20 951.02 412.79 951.13 414.38 C 952.18 415.85 951.95 417.70 952.20 419.39 C 953.63 421.59 952.32 424.46 953.85 426.62 C 954.10 428.62 953.55 430.89 954.90 432.62 C 955.25 435.27 954.28 438.26 955.88 440.62 C 956.18 442.94 955.40 445.58 956.90 447.62 C 957.06 450.87 956.93 454.12 957.10 457.38 C 959.54 461.37 956.45 466.63 958.90 470.61 C 959.06 490.53 959.07 510.46 958.90 530.38 C 956.94 534.00 958.52 538.43 957.90 542.38 C 956.00 545.68 957.47 549.75 956.91 553.38 C 954.81 556.08 957.17 559.90 955.11 562.61 C 955.01 564.53 954.97 566.45 954.88 568.38 C 953.56 570.12 954.10 572.37 953.86 574.39 C 952.59 576.14 953.09 578.37 952.85 580.39 C 951.60 582.26 952.38 584.72 951.15 586.62 C 950.91 588.62 951.34 590.80 950.20 592.60 C 949.96 594.28 950.16 596.10 949.18 597.60 C 949.05 598.53 948.92 599.46 948.81 600.40 C 947.66 602.30 948.31 604.69 947.19 606.61 C 947.05 607.53 946.92 608.46 946.81 609.40 C 946.12 610.64 945.96 612.05 945.71 613.43 C 945.17 615.13 944.83 616.89 944.25 618.58 C 944.12 619.04 943.88 619.96 943.76 620.42 C 943.16 622.11 942.82 623.88 942.25 625.58 C 942.12 626.04 941.88 626.96 941.76 627.42 C 941.16 629.11 940.82 630.88 940.23 632.58 C 940.12 633.04 939.90 633.97 939.79 634.43 C 939.37 635.42 938.99 636.43 938.64 637.46 C 938.15 639.16 937.84 640.91 937.24 642.58 C 937.13 643.04 936.89 643.97 936.78 644.43 C 936.37 645.42 936.01 646.44 935.70 647.47 C 935.21 648.78 934.79 650.12 934.25 651.42 C 933.65 652.74 933.11 654.09 932.68 655.48 C 932.19 656.82 931.77 658.18 931.31 659.54 C 930.98 660.50 930.64 661.47 930.28 662.43 C 929.49 664.08 928.88 665.79 928.29 667.52 C 927.97 668.49 927.63 669.47 927.28 670.44 C 926.24 672.75 925.47 675.18 924.26 677.41 C 923.09 680.16 922.16 683.01 920.68 685.62 C 919.50 687.86 918.72 690.26 917.78 692.61 C 917.51 693.11 916.96 694.11 916.68 694.61 C 916.02 695.92 915.36 697.23 914.73 698.55 C 914.47 699.07 913.96 700.10 913.70 700.61 C 912.69 702.58 911.69 704.57 910.72 706.57 C 910.47 707.08 909.96 708.11 909.70 708.62 C 908.89 710.20 908.09 711.80 907.28 713.39 C 906.42 715.13 905.54 716.88 904.75 718.66 C 903.63 720.59 902.35 722.43 901.22 724.36 C 900.74 725.45 900.24 726.53 899.78 727.64 C 898.63 729.56 897.35 731.40 896.29 733.38 C 895.31 735.05 894.21 736.66 893.29 738.37 C 892.46 739.81 891.51 741.18 890.71 742.64 C 877.70 763.51 863.02 783.39 846.83 801.85 C 843.22 807.45 837.28 811.03 833.74 816.69 C 827.93 822.55 822.18 828.51 816.17 834.15 C 811.27 837.14 808.24 842.29 803.44 845.39 C 801.66 846.59 800.29 848.26 798.77 849.75 C 781.84 863.71 764.38 877.22 745.62 888.70 C 742.87 890.24 740.42 892.25 737.63 893.71 C 736.17 894.51 734.81 895.46 733.37 896.29 C 731.66 897.18 730.08 898.28 728.47 899.33 C 727.94 899.57 726.90 900.04 726.37 900.28 C 723.65 901.52 721.17 903.20 718.64 904.77 C 717.55 905.24 716.47 905.75 715.40 906.26 C 713.41 907.31 711.40 908.31 709.38 909.29 C 707.79 910.09 706.20 910.89 704.62 911.70 C 704.10 911.96 703.07 912.47 702.55 912.72 C 701.22 913.37 699.90 914.04 698.59 914.73 C 697.52 915.22 696.46 915.75 695.41 916.27 C 692.32 918.14 688.82 919.07 685.62 920.67 C 683.01 922.16 680.16 923.10 677.41 924.25 C 675.73 924.91 674.04 925.52 672.40 926.26 C 670.84 927.10 669.23 927.86 667.51 928.31 C 665.78 928.88 664.07 929.49 662.43 930.28 C 661.47 930.64 660.50 930.98 659.54 931.31 C 658.18 931.78 656.81 932.20 655.47 932.69 C 654.49 933.00 653.52 933.34 652.58 933.73 C 651.24 934.31 649.90 934.87 648.53 935.35 C 647.53 935.67 646.53 935.99 645.53 936.30 C 644.53 936.66 643.53 937.00 642.53 937.35 C 640.85 937.83 639.13 938.15 637.46 938.64 C 636.43 938.99 635.42 939.37 634.43 939.79 C 633.97 939.90 633.04 940.13 632.58 940.24 C 630.88 940.82 629.11 941.16 627.42 941.75 C 626.96 941.88 626.04 942.12 625.58 942.25 C 623.87 942.81 622.11 943.16 620.42 943.75 C 619.96 943.88 619.04 944.12 618.58 944.24 C 616.87 944.82 615.08 945.14 613.40 945.80 C 612.46 945.92 611.53 946.05 610.60 946.19 C 608.69 947.33 606.29 946.64 604.40 947.81 C 603.46 947.92 602.53 948.05 601.61 948.19 C 599.69 949.31 597.30 948.66 595.40 949.81 C 594.46 949.92 593.53 950.05 592.60 950.18 C 590.81 951.36 588.61 950.91 586.61 951.15 C 585.13 952.19 583.28 951.95 581.60 952.19 C 579.81 953.35 577.61 952.91 575.62 953.15 C 573.84 954.38 571.62 953.90 569.61 954.15 C 567.17 955.95 563.79 954.01 561.38 955.89 C 559.12 955.99 556.87 955.99 554.62 956.11 C 550.95 958.46 546.04 955.51 542.38 957.91 C 538.42 958.51 534.01 956.96 530.38 958.90 C 510.46 959.07 490.54 959.07 470.62 958.90 C 466.99 956.95 462.57 958.51 458.62 957.91 C 455.32 955.99 451.24 957.47 447.62 956.91 C 445.22 954.98 441.79 957.00 439.38 955.11 C 437.12 954.99 434.87 954.99 432.62 954.89 C 430.50 953.22 427.52 954.75 425.39 953.13 C 423.79 953.02 422.20 952.96 420.62 952.87 C 419.14 951.79 417.29 952.03 415.60 951.80 C 413.41 950.35 410.57 951.64 408.40 950.18 C 407.46 950.04 406.53 949.92 405.60 949.81 C 403.69 948.65 401.30 949.32 399.39 948.19 C 398.46 948.05 397.53 947.92 396.60 947.81 C 394.70 946.71 392.38 947.20 390.42 946.30 C 389.07 946.01 387.70 945.78 386.42 945.30 C 385.06 945.01 383.68 944.81 382.41 944.25 C 381.95 944.12 381.04 943.88 380.58 943.76 C 378.88 943.17 377.11 942.83 375.42 942.24 C 374.96 942.12 374.04 941.88 373.58 941.76 C 371.88 941.17 370.11 940.82 368.42 940.23 C 367.96 940.12 367.03 939.90 366.57 939.79 C 365.56 939.37 364.56 938.99 363.54 938.65 C 361.83 938.15 360.08 937.85 358.42 937.24 C 357.95 937.13 357.02 936.91 356.56 936.81 C 355.22 936.21 353.83 935.77 352.47 935.30 C 351.49 934.98 350.53 934.64 349.58 934.27 C 348.25 933.66 346.91 933.10 345.53 932.67 C 344.17 932.19 342.81 931.78 341.47 931.31 C 340.49 930.98 339.53 930.63 338.58 930.27 C 337.25 929.66 335.90 929.09 334.51 928.68 C 332.78 928.09 331.06 927.49 329.41 926.74 C 327.18 925.51 324.75 924.73 322.42 923.75 C 319.72 922.80 317.07 921.70 314.62 920.23 C 312.56 919.36 310.45 918.63 308.38 917.79 C 307.47 917.26 306.55 916.76 305.63 916.27 C 303.59 915.32 301.58 914.31 299.60 913.27 C 298.52 912.75 297.47 912.22 296.41 911.73 C 293.75 910.35 291.08 909.00 288.37 907.72 C 287.45 907.22 286.53 906.73 285.61 906.25 C 284.52 905.75 283.45 905.24 282.36 904.78 C 280.68 903.79 279.07 902.67 277.41 901.66 C 275.80 900.88 274.20 900.10 272.59 899.34 C 271.17 898.47 269.82 897.51 268.38 896.70 C 266.66 895.78 265.06 894.67 263.37 893.71 C 260.32 892.12 257.68 889.87 254.62 888.30 C 234.47 875.57 215.33 861.19 197.56 845.39 C 192.76 842.30 189.73 837.14 184.83 834.16 C 178.83 828.52 173.09 822.57 167.28 816.72 C 164.44 812.31 160.31 809.02 156.74 805.24 C 149.14 795.56 140.72 786.57 133.61 776.47 C 125.31 765.91 117.99 754.64 110.70 743.38 C 109.65 741.41 108.36 739.58 107.29 737.62 C 106.32 735.93 105.21 734.33 104.30 732.62 C 102.59 729.96 100.93 727.28 99.76 724.35 C 98.79 722.66 97.67 721.06 96.66 719.41 C 96.02 718.06 95.37 716.73 94.72 715.40 C 93.69 713.41 92.68 711.40 91.71 709.39 C 90.89 707.79 90.10 706.18 89.28 704.59 C 88.64 703.25 87.97 701.93 87.31 700.62 C 87.05 700.10 86.53 699.07 86.27 698.55 C 85.62 697.23 84.97 695.92 84.32 694.62 C 84.05 694.11 83.49 693.11 83.22 692.61 C 82.37 690.54 81.64 688.43 80.76 686.38 C 78.81 683.33 77.95 679.77 76.27 676.59 C 75.37 674.55 74.64 672.46 73.72 670.45 C 73.35 669.47 73.01 668.50 72.70 667.53 C 72.22 666.20 71.79 664.87 71.26 663.58 C 70.51 661.88 69.89 660.15 69.18 658.45 C 69.09 657.98 68.91 657.02 68.82 656.55 C 68.11 654.84 67.48 653.10 66.74 651.42 C 66.20 650.12 65.78 648.78 65.30 647.47 C 64.97 646.43 64.61 645.42 64.22 644.43 C 64.11 643.97 63.87 643.04 63.76 642.58 C 63.14 640.91 62.84 639.16 62.36 637.46 C 62.00 636.43 61.62 635.42 61.21 634.43 C 61.10 633.97 60.87 633.04 60.76 632.58 C 60.17 630.88 59.82 629.11 59.24 627.42 C 59.12 626.96 58.88 626.04 58.75 625.58 C 58.17 623.88 57.82 622.11 57.25 620.42 C 57.12 619.96 56.88 619.04 56.75 618.58 C 56.18 616.87 55.85 615.08 55.20 613.40 C 55.07 612.46 54.94 611.52 54.81 610.60 C 53.65 608.69 54.35 606.29 53.18 604.40 C 53.06 603.46 52.93 602.53 52.81 601.60 C 51.67 599.69 52.33 597.30 51.19 595.40 C 51.06 594.46 50.94 593.53 50.82 592.61 C 49.36 590.42 50.63 587.58 49.20 585.40 C 48.97 583.70 49.19 581.86 48.15 580.39 C 47.91 578.37 48.39 576.15 47.15 574.38 C 46.89 572.36 47.42 570.12 46.12 568.38 C 45.82 566.04 46.59 563.41 45.10 561.38 C 44.98 558.79 45.01 556.20 44.90 553.62 C 42.59 550.28 45.40 545.72 43.10 542.38 C 42.47 538.42 44.05 534.00 42.10 530.38 C 41.92 510.61 41.97 490.83 42.07 471.06 C 42.28 470.64 42.70 469.80 42.90 469.38 C 43.52 465.42 41.95 461.01 43.90 457.38 C 44.04 454.46 43.96 451.53 44.10 448.62 C 46.19 445.91 43.82 442.09 45.89 439.38 C 46.00 437.13 46.00 434.87 46.11 432.62 C 47.43 430.88 46.89 428.62 47.15 426.61 C 48.39 424.85 47.90 422.62 48.15 420.62 C 49.18 419.13 48.97 417.29 49.20 415.60 C 50.63 413.41 49.36 410.57 50.82 408.40 C 50.94 407.46 51.06 406.53 51.19 405.60 C 52.34 403.70 51.67 401.30 52.81 399.40 C 52.94 398.46 53.06 397.53 53.19 396.60 C 54.26 394.69 53.80 392.39 54.70 390.42 C 54.97 389.06 55.21 387.70 55.70 386.42 C 55.98 385.06 56.18 383.68 56.76 382.41 C 56.88 381.95 57.12 381.04 57.25 380.58 C 57.82 378.88 58.18 377.11 58.75 375.42 C 58.88 374.96 59.12 374.04 59.25 373.58 C 59.86 371.91 60.16 370.16 60.64 368.46 C 60.99 367.43 61.38 366.43 61.79 365.43 C 61.90 364.97 62.12 364.04 62.24 363.58 C 62.85 361.91 63.16 360.16 63.66 358.47 C 63.98 357.46 64.33 356.46 64.70 355.47 C 65.00 354.46 65.33 353.46 65.67 352.46 C 66.00 351.48 66.35 350.52 66.72 349.57 C 67.48 347.88 68.12 346.15 68.83 344.45 C 68.91 343.98 69.08 343.03 69.17 342.55 C 69.75 341.25 70.21 339.90 70.75 338.59 C 71.49 336.92 72.10 335.21 72.69 333.49 C 73.13 331.76 73.89 330.14 74.74 328.59 C 75.64 326.56 76.37 324.45 77.25 322.42 C 77.93 320.74 78.54 319.04 79.21 317.36 C 79.73 316.45 80.27 315.54 80.80 314.64 C 81.93 311.55 83.08 308.47 84.71 305.60 C 85.89 303.19 87.11 300.80 88.29 298.39 C 89.44 296.14 90.55 293.87 91.70 291.61 C 91.96 291.10 92.47 290.08 92.72 289.57 C 93.71 287.57 94.71 285.58 95.69 283.58 C 96.81 281.14 98.37 278.94 99.76 276.65 C 100.37 275.29 101.01 273.94 101.64 272.59 C 102.52 271.18 103.48 269.82 104.30 268.37 C 105.35 266.41 106.65 264.58 107.71 262.62 C 108.68 260.94 109.79 259.33 110.70 257.61 C 115.30 250.32 120.24 243.24 124.97 236.04 C 132.90 225.62 140.37 214.83 149.17 205.14 C 151.28 201.67 154.74 199.31 156.84 195.83 C 160.19 191.86 164.49 188.75 167.27 184.29 C 173.08 178.44 178.82 172.48 184.83 166.84 C 189.73 163.86 192.76 158.70 197.56 155.61 C 215.57 139.66 234.89 125.01 255.38 112.30 C 258.12 110.76 260.57 108.73 263.37 107.29 C 264.82 106.48 266.18 105.52 267.63 104.71 C 269.34 103.80 270.94 102.69 272.59 101.67 C 274.19 100.89 275.80 100.11 277.41 99.35 C 278.81 98.49 280.15 97.53 281.54 96.66 C 282.06 96.42 283.10 95.95 283.62 95.72 C 285.20 94.89 286.79 94.10 288.38 93.29 C 290.13 92.44 291.87 91.56 293.62 90.70 C 294.94 90.03 296.26 89.36 297.60 88.71 C 298.92 88.03 300.25 87.36 301.59 86.71 C 302.90 86.04 304.22 85.38 305.55 84.74 C 306.07 84.47 307.10 83.92 307.61 83.65 C 309.87 82.52 312.28 81.72 314.62 80.77 C 317.42 79.04 320.55 77.98 323.59 76.76 C 325.26 76.08 326.95 75.47 328.60 74.74 C 330.47 73.69 332.48 72.95 334.52 72.29 C 335.50 71.98 336.46 71.64 337.42 71.27 C 338.74 70.67 340.08 70.11 341.47 69.67 C 342.81 69.21 344.18 68.80 345.52 68.33 C 346.90 67.88 348.25 67.33 349.58 66.73 C 350.53 66.35 351.49 66.00 352.46 65.67 C 353.46 65.32 354.46 65.00 355.47 64.70 C 356.46 64.33 357.46 63.98 358.47 63.65 C 360.14 63.16 361.86 62.85 363.54 62.36 C 364.56 62.00 365.56 61.62 366.57 61.21 C 367.03 61.10 367.96 60.88 368.42 60.77 C 370.11 60.16 371.88 59.83 373.58 59.25 C 374.04 59.12 374.96 58.88 375.42 58.76 C 377.11 58.17 378.88 57.82 380.58 57.25 C 381.04 57.12 381.96 56.88 382.42 56.75 C 384.12 56.18 385.91 55.85 387.60 55.20 C 388.52 55.07 389.46 54.94 390.40 54.81 C 392.30 53.65 394.70 54.34 396.60 53.19 C 397.53 53.06 398.46 52.94 399.39 52.81 C 401.30 51.67 403.69 52.33 405.60 51.19 C 406.53 51.06 407.46 50.94 408.39 50.82 C 410.18 49.65 412.37 50.08 414.39 49.85 C 416.26 48.60 418.73 49.40 420.62 48.15 C 422.62 47.90 424.85 48.40 426.61 47.15 C 428.62 46.89 430.88 47.43 432.62 46.10 C 435.27 45.74 438.27 46.72 440.62 45.11 C 442.87 45.00 445.12 45.00 447.38 44.89 C 450.36 43.08 454.08 44.41 457.38 43.91 C 461.00 41.94 465.43 43.53 469.39 42.91 M 482.30 126.44 C 402.42 130.14 324.06 160.40 262.45 211.39 C 217.76 248.09 181.81 295.36 158.35 348.22 C 135.62 399.18 124.51 455.27 126.15 511.05 C 127.50 560.82 138.97 610.27 159.61 655.57 C 191.31 725.68 245.31 785.41 311.86 824.03 C 377.30 862.35 454.59 879.99 530.18 873.82 C 586.03 869.44 640.84 852.26 689.20 823.99 C 732.51 798.76 770.65 764.74 800.60 724.55 C 832.87 681.41 855.61 631.20 866.79 578.50 C 881.79 508.58 876.12 434.40 850.63 367.58 C 824.54 298.45 777.37 237.51 717.01 194.91 C 649.34 146.71 565.27 122.19 482.30 126.44 Z" />
</g>
<g id="#515151ff">
<path fill="#515151" opacity="1.00" d=" M 391.97 168.83 C 401.87 159.43 415.39 153.99 429.05 153.95 C 474.71 153.91 520.37 153.96 566.02 153.93 C 571.73 153.86 577.50 154.00 583.07 155.37 C 598.54 158.87 612.16 169.53 619.32 183.67 C 626.52 197.57 627.15 214.64 621.02 229.04 C 613.51 247.36 595.33 260.50 575.64 262.22 C 575.60 317.48 575.63 372.74 575.63 427.99 C 575.80 437.95 574.78 447.99 576.61 457.85 C 579.21 472.50 584.13 486.62 589.36 500.51 C 594.47 513.81 600.13 526.90 606.25 539.76 C 608.22 543.97 610.82 547.83 613.22 551.81 C 644.33 602.74 675.43 653.67 706.55 704.60 C 714.70 717.69 720.36 732.58 721.35 748.06 C 722.29 762.04 719.16 776.53 711.28 788.23 C 703.62 799.81 691.47 808.37 677.90 811.38 C 670.73 813.15 663.32 812.71 656.01 812.75 C 549.35 813.00 442.69 813.20 336.03 813.45 C 322.38 813.49 308.67 808.68 298.42 799.61 C 287.25 789.86 280.47 775.63 278.91 760.98 C 276.93 742.77 282.15 724.21 291.85 708.82 C 324.89 653.54 357.95 598.27 390.95 542.96 C 398.97 527.88 405.92 512.24 412.19 496.35 C 416.39 485.50 420.28 474.48 422.82 463.11 C 425.29 452.59 424.57 441.71 424.81 431.00 C 424.68 374.74 424.38 318.47 424.48 262.21 C 410.88 260.92 397.84 254.45 388.76 244.23 C 379.20 233.69 374.11 219.24 375.03 205.03 C 375.74 191.37 382.00 178.16 391.97 168.83 M 426.43 194.62 C 420.22 195.84 415.22 201.67 415.27 208.05 C 415.09 214.40 419.94 220.31 426.09 221.67 C 434.26 223.11 442.79 220.85 450.86 223.10 C 459.28 225.67 465.08 234.23 464.82 242.97 C 464.99 284.31 464.78 325.65 464.92 366.99 C 465.07 393.98 465.39 420.99 464.91 447.98 C 465.07 466.67 459.37 484.72 453.20 502.14 C 445.60 522.80 436.52 542.92 426.29 562.40 C 392.32 619.41 358.21 676.33 324.21 733.32 C 318.89 742.82 316.40 755.20 321.75 765.22 C 324.78 771.09 331.71 773.43 337.97 773.15 C 447.31 772.93 556.65 772.64 665.99 772.42 C 674.27 772.65 680.08 764.69 680.95 757.11 C 682.76 744.14 676.39 731.95 669.56 721.41 C 638.87 671.14 608.19 620.87 577.50 570.59 C 575.21 566.81 572.76 563.10 570.86 559.09 C 561.33 539.36 552.72 519.15 545.77 498.35 C 540.60 482.37 535.86 465.96 535.26 449.07 C 535.25 380.71 535.23 312.35 535.27 244.00 C 535.31 234.55 541.54 224.89 551.06 222.71 C 558.58 221.21 566.35 222.93 573.91 221.70 C 580.85 220.27 586.06 213.01 584.69 205.95 C 583.65 199.06 576.90 193.92 570.01 194.26 C 523.68 194.23 477.35 194.27 431.02 194.24 C 429.48 194.27 427.93 194.31 426.43 194.62 Z" />
<path fill="#515151" opacity="1.00" d=" M 453.34 623.49 C 475.92 623.23 498.51 623.44 521.10 623.38 C 527.23 623.27 533.36 626.00 537.20 630.82 C 542.18 636.78 543.13 645.71 539.58 652.61 C 536.36 659.16 529.34 663.65 522.02 663.67 C 499.67 663.71 477.31 663.68 454.96 663.68 C 448.59 663.73 442.34 660.53 438.67 655.34 C 434.23 649.32 433.65 640.79 437.15 634.21 C 440.25 628.18 446.56 623.95 453.34 623.49 Z" />
<path fill="#515151" opacity="1.00" d=" M 399.38 699.56 C 403.83 698.45 408.45 698.88 412.99 698.81 C 420.35 698.89 427.71 698.66 435.06 698.91 C 444.31 699.18 452.60 706.74 453.85 715.88 C 455.32 724.30 450.71 733.27 443.03 737.01 C 437.80 739.82 431.68 739.11 425.97 739.19 C 418.31 739.08 410.64 739.38 402.99 739.05 C 393.51 738.51 385.32 730.30 384.65 720.86 C 383.57 711.40 390.18 701.90 399.38 699.56 Z" />
<path fill="#515151" opacity="1.00" d=" M 499.40 700.56 C 503.15 699.41 507.12 699.70 511.00 699.68 C 537.66 699.70 564.32 699.68 590.98 699.69 C 597.56 699.52 604.08 702.79 607.82 708.20 C 612.61 714.78 612.72 724.32 608.12 731.04 C 604.43 736.68 597.77 740.13 591.03 739.99 C 564.37 740.02 537.71 739.98 511.04 740.01 C 506.29 740.02 501.28 740.31 496.89 738.15 C 489.60 734.88 484.74 726.96 485.21 718.98 C 485.41 710.64 491.41 702.91 499.40 700.56 Z" />
</g>
</svg>
